<?xml version="1.0" encoding="utf-8"?>
<!-- Generator: Adobe Illustrator 22.1.0, SVG Export Plug-In . SVG Version: 6.00 Build 0)  -->
<svg version="1.1" id="레이어_1" xmlns="http://www.w3.org/2000/svg" xmlns:xlink="http://www.w3.org/1999/xlink" x="0px"
	 y="0px" viewBox="0 0 170.1 170.1" style="enable-background:new 0 0 170.1 170.1;" xml:space="preserve">
<style type="text/css">
	.st0{fill:#5E5E5E;}
</style>
<g>
	<g>
		<path class="st0" d="M85.1,117.1c-28.3,0-51.4-23.1-51.4-51.4s23.1-51.4,51.4-51.4c28.3,0,51.4,23.1,51.4,51.4
			S113.5,117.1,85.1,117.1z M85.1,25c-22.4,0-40.7,18.3-40.7,40.7s18.3,40.7,40.7,40.7c22.4,0,40.7-18.3,40.7-40.7S107.6,25,85.1,25
			z"/>
		<g>
			<path class="st0" d="M81.8,94.5H67.6V39.1h15.8c6.1,0,10.5,0.3,13.1,0.9c2.5,0.7,4.6,1.7,6.3,3.1c2,1.7,3.6,3.8,4.7,6.3
				c1.1,2.5,1.6,5.4,1.6,8.5c0,3.3-0.5,6.2-1.6,8.7c-1,2.5-2.5,4.6-4.7,6.2c-1.5,1.2-3.4,2.1-5.6,2.6c-1.9,0.5-5.3,0.8-10.1,0.8
				h-2.6h-2.7V94.5z M81.8,64h2.9c3.6,0,6.1-0.5,7.6-1.6c1.4-1,2.2-2.6,2.2-5c0-2.3-0.7-3.9-2.1-4.9c-1.4-1-3.9-1.5-7.5-1.5h-3V64z"
				/>
		</g>
	</g>
	<g>
		<path class="st0" d="M72.9,149.9h-8.6v7.5h-2.5v-7.5h-8.5v-2h19.6L72.9,149.9z M54.4,144.3c4.1-0.6,7.2-2.9,7.3-5.4h-6.6v-2h16v2
			h-6.6c0.1,2.5,3.2,4.9,7.3,5.4l-0.9,1.9c-3.6-0.5-6.5-2.3-7.8-4.7c-1.3,2.4-4.2,4.2-7.8,4.7L54.4,144.3z"/>
		<path class="st0" d="M82.6,142.6c0,3.3,1.9,6.8,5.1,8.4l-1.4,1.9c-2.3-1.1-4.1-3.3-4.9-6c-1,2.8-2.8,5.2-5.2,6.3l-1.4-1.9
			c3.3-1.6,5.3-5.2,5.3-8.8v-1.2h-4.7v-2h4.7v-3.2h2.5v3.2h4.6v2h-4.6V142.6z M95.3,146.4h-3.4v10.9h-2.5v-21.7h2.5v8.7h3.4V146.4z"
			/>
		<path class="st0" d="M108.5,147.8c-2.4-0.8-4.2-2.3-5.1-4.3c-1,2.3-2.8,4.2-5.4,5l-1.2-1.9c3.4-1.2,5.3-4,5.3-6.9v-0.4h-4.6v-2
			h11.6v2h-4.5v0.4c0,2.7,1.8,5.2,5.1,6.3L108.5,147.8z M114.1,153.2c0,2.6-2.8,4.1-7.2,4.1s-7.2-1.5-7.2-4.1c0-2.6,2.8-4.1,7.2-4.1
			S114.1,150.7,114.1,153.2z M111.7,153.2c0-1.4-1.8-2.2-4.8-2.2c-3,0-4.8,0.7-4.8,2.2c0,1.4,1.8,2.2,4.8,2.2
			C109.9,155.4,111.7,154.6,111.7,153.2z M117,141v2h-3.1v5.6h-2.5v-13h2.5v5.3H117z"/>
	</g>
</g>
</svg>
