<?xml version="1.0" encoding="utf-8"?>
<!-- Generator: Adobe Illustrator 22.1.0, SVG Export Plug-In . SVG Version: 6.00 Build 0)  -->
<svg version="1.1" id="레이어_1" xmlns="http://www.w3.org/2000/svg" xmlns:xlink="http://www.w3.org/1999/xlink" x="0px"
	 y="0px" viewBox="0 0 170.1 170.1" style="enable-background:new 0 0 170.1 170.1;" xml:space="preserve">
<style type="text/css">
	.st0{fill:#5E5E5E;}
</style>
<g>
	<path class="st0" d="M130.9,44.2c-2.5-6.1-6.1-11.6-10.9-16.4s-10.2-8.4-16.4-10.9c-5.9-2.4-12.2-3.6-18.6-3.6S72.4,14.6,66.5,17
		c-6.1,2.5-11.6,6.1-16.4,10.9s-8.4,10.2-10.9,16.4c-2.4,5.9-3.6,12.2-3.6,18.6s1.2,12.7,3.6,18.6c2.5,6.1,6.1,11.6,10.9,16.4
		c4.7,4.7,10.2,8.4,16.4,10.9c5.9,2.4,12.2,3.6,18.6,3.6s12.7-1.2,18.6-3.6c6.1-2.5,11.6-6.1,16.4-10.9c4.7-4.7,8.4-10.2,10.9-16.4
		c2.4-5.9,3.6-12.2,3.6-18.6S133.3,50.2,130.9,44.2z M125,56.6c-1.4,1.5-5,5.3-8.7,8.7l-21-9.6l-4.8-18.4l12.3-11.1
		c3.4,1,14.4,4.8,18.9,10.5C125.2,43.6,125.4,51.3,125,56.6z M94,58.3l21.1,9.7c0.2,3.1,0.7,12.5,0.3,17.2
		c-4.1,6.3-9.9,9.7-14.1,11.5c-3.4,1.5-6.5,2.2-8.5,2.5c-7.2,0.1-13.5-3.9-15.8-5.6L76.8,70L94,58.3z M49.7,86.3
		c-1.6-1.9-3.2-4-4.7-6.2c-1.2-5.7-1.2-10.7-0.1-14.9l15.3-7.3L73.9,70L74,93.3c-5.2,2.8-9.7,3.3-11.4,3.4
		C57.4,94.4,52.7,89.8,49.7,86.3z M100.6,24.2l-12.2,11l-19.6-0.3l-5.6-9.1c2.3-1.8,8.4-6.5,13.7-8.6c5.7-1,11.4-0.9,17.1,0.2
		C95.7,18.7,99,21.7,100.6,24.2z M60.6,27l5.7,9.4l-7,18.7L44,62.4c-1.9-1.8-4-4-5-5.6c0.9-7,3.4-13.7,7.2-19.6
		C52.2,31.5,57.5,27.7,60.6,27z M47.5,88.2c3.4,3.9,8.7,9.1,14.7,11.5l6,6.4c-6-2.3-11.4-5.9-16-10.4c-1.2-1.2-2.4-2.6-3.5-3.9
		c-0.4-1.1-1-2.4-1.5-3.9C47.3,88,47.4,88.1,47.5,88.2z M96.3,101.4c2.1-0.5,4.2-1.2,6.1-2c3.6-1.5,6.8-3.5,9.5-5.8
		c2.1-1.8,3.9-3.8,5.4-6l7.9-1.3c-2,3.4-4.5,6.6-7.3,9.5c-7,7-15.7,11.4-25.4,13C93.4,107.3,94.5,105,96.3,101.4z M127.1,42.8
		c3.1,6.4,4.6,13.5,4.5,20.7c-0.8-2.8-2-5.4-3.6-7.1C128.2,52.6,128.2,47.8,127.1,42.8z"/>
	<g>
		<path class="st0" d="M73.8,145.6v2H54.3v-2h7.7v-4h2.5v4H73.8z M71.5,153.3c0,2.5-3,4.1-7.6,4.1c-4.7,0-7.6-1.5-7.6-4.1
			c0-2.5,3-4,7.6-4C68.6,149.3,71.5,150.8,71.5,153.3z M68.4,144c0.6-2.1,0.6-3.7,0.6-5.3H56.5v-2h14.9v1.8c0,1.7,0,3.5-0.6,5.8
			L68.4,144z M69.1,153.3c0-1.3-1.9-2.1-5.1-2.1c-3.2,0-5.2,0.8-5.2,2.1c0,1.4,2,2.2,5.2,2.2C67.2,155.5,69.1,154.7,69.1,153.3z"/>
		<path class="st0" d="M79.2,150.2c2.5,0,4.5-0.1,6.7-0.6l0.2,2c-2.6,0.5-4.8,0.6-7.9,0.6h-1.4v-13.9h8v2h-5.6V150.2z M94.6,135.7
			v21.7h-2.4v-11.1h-2.6v10h-2.3v-20.2h2.3v8.1h2.6v-8.6H94.6z"/>
		<path class="st0" d="M115.9,135.7v21.7h-2.5v-8.2h-5c-0.9,2.1-2.6,3.4-4.7,3.4c-3.2,0-5.5-3-5.5-7.7c0-4.7,2.3-7.6,5.5-7.6
			c2,0,3.6,1.1,4.6,3.1h5.1v-4.7H115.9z M106.9,144.9c0-3.4-1.3-5.4-3.1-5.4c-1.8,0-3.1,2-3.1,5.4c0,3.4,1.3,5.4,3.1,5.4
			C105.6,150.3,106.9,148.3,106.9,144.9z M113.4,147.1v-4.8H109c0.2,0.8,0.3,1.6,0.3,2.5c0,0.8-0.1,1.5-0.2,2.2H113.4z"/>
	</g>
</g>
</svg>
