<?xml version="1.0" encoding="utf-8"?>
<!-- Generator: Adobe Illustrator 22.1.0, SVG Export Plug-In . SVG Version: 6.00 Build 0)  -->
<svg version="1.1" id="레이어_1" xmlns="http://www.w3.org/2000/svg" xmlns:xlink="http://www.w3.org/1999/xlink" x="0px"
	 y="0px" viewBox="0 0 170.1 170.1" style="enable-background:new 0 0 170.1 170.1;" xml:space="preserve">
<style type="text/css">
	.st0{fill:#5E5E5E;}
</style>
<g>
	<path class="st0" d="M112.7,54.7v-3V17.9h-10.2c0,0.1,0,0.2,0,0.4c0,10.4-7.7,18.9-17.3,18.9c-9.6,0-17.3-8.5-17.3-18.9
		c0-0.1,0-0.2,0-0.4H57.7v33.8v3l-6.6,10.2v38.4v5.8h68.2v-5.8V64.9L112.7,54.7z"/>
	<g>
		<path class="st0" d="M45.4,141.8c-3.1,0.5-5.8,0.6-10.4,0.6h-1.8v-10.5h10.4v2h-7.9v2.2h7.3v1.9h-7.3v2.4c4.2,0,6.6-0.1,9.5-0.6
			L45.4,141.8z M35.6,144.6h14.2v7.5H35.6V144.6z M38,150.1h9.3v-3.6H38V150.1z M49.8,130.7v12.9h-2.5v-12.9H49.8z"/>
		<path class="st0" d="M73.4,147.7v2H53.8v-2h8.6v-5.1h2.5v5.1H73.4z M54.6,141.5c4.2-0.7,7.7-3.7,7.7-6.9v0h-6.9v-2h16.4v2h-6.9v0
			c0,3.3,3.5,6.2,7.8,6.9l-1,2c-3.6-0.7-6.6-2.7-8-5.4c-1.4,2.8-4.4,4.8-7.9,5.5L54.6,141.5z"/>
		<path class="st0" d="M82.3,133c0,5.5-1,10.4-4.9,14.5l-1.9-1.4c3-3.2,4.2-6.8,4.4-11.1h-3.5v-2H82.3z M88.4,133
			c0,5.6-0.8,11.4-4.5,16l-2-1.3c3-3.7,4-7.9,4.2-12.6h-3v-2H88.4z M93.5,130.7v21.7H91v-21.7H93.5z"/>
		<path class="st0" d="M100.6,145.2c2.5,0,4.5-0.1,6.7-0.6l0.2,2c-2.6,0.5-4.8,0.6-7.9,0.6h-1.4v-13.9h8v2h-5.6V145.2z M115.9,130.7
			v21.7h-2.4v-11.1H111v10h-2.3v-20.2h2.3v8.1h2.6v-8.6H115.9z"/>
		<path class="st0" d="M137.3,130.7v21.7h-2.5v-8.2h-5c-0.9,2.1-2.6,3.4-4.7,3.4c-3.2,0-5.5-3-5.5-7.7c0-4.7,2.3-7.6,5.5-7.6
			c2,0,3.6,1.1,4.6,3.1h5.1v-4.7H137.3z M128.3,139.9c0-3.4-1.3-5.4-3.1-5.4c-1.8,0-3.1,2-3.1,5.4c0,3.4,1.3,5.4,3.1,5.4
			C127,145.3,128.3,143.3,128.3,139.9z M134.8,142.1v-4.8h-4.4c0.2,0.8,0.3,1.6,0.3,2.5c0,0.8-0.1,1.5-0.2,2.2H134.8z"/>
	</g>
</g>
</svg>
