<?xml version="1.0" encoding="utf-8"?>
<!-- Generator: Adobe Illustrator 22.1.0, SVG Export Plug-In . SVG Version: 6.00 Build 0)  -->
<svg version="1.1" id="레이어_1" xmlns="http://www.w3.org/2000/svg" xmlns:xlink="http://www.w3.org/1999/xlink" x="0px"
	 y="0px" viewBox="0 0 170.1 170.1" style="enable-background:new 0 0 170.1 170.1;" xml:space="preserve">
<style type="text/css">
	.st0{fill:#DFDFDF;}
</style>
<g>
	<g>
		<path class="st0" d="M28.8,69.1c0,6,3.7,12.4,15,16.2l0.3,0.1c0.1,1,1,1.8,2,1.8h3.3c1,0,1.9-0.8,2-1.8l0.2,1.9
			c2.2,0.4,4.7,0.8,7.3,1l0.2-1.2c0.1,1,1,1.8,2,1.8h3.3c1,0,1.9-0.8,2-1.8l0.2,1.8c3.5,0.2,6.6,0.2,9.3,0.1l0.2-1.9
			c0.1,1,1,1.8,2,1.8h3.3c1,0,1.9-0.8,2-1.8l0.2,1.3c3.6-0.4,6.4-1,8.9-1.5l0.3-0.8c0.1,1,1,1.8,2,1.8h3.3c1,0,1.9-0.8,2-1.8
			l0.3-0.3c0.4,0,0.8,0,1.3,0c3.1,0.1,5.7,0.2,8.2,0.4l0.3-0.1c0.1,1,1,1.8,2,1.8h3.3c1,0,1.9-0.8,2-1.8l0.2,1
			c2.6,0.3,4.9,0.7,7.2,0.9l0.2-1c0.1,1,1,1.8,2,1.8h3.3c1,0,1.9-0.8,2-1.8l0.2,1.2c6.7-0.5,8.5-3.7,8.5-8.3c0-5.1,0-30.6,0-34.2
			c0-6.2-4.2-7.4-8.1-2.9c-3.1,3.5-5.9,6.3-14,6.3c-9.3,0-15.2-7.5-17.7-9.2s-3.7-3.7-9.6,0.3c-2.4,1.6-6.6,4-11.5,6.6l5.1,5.1
			c0.9,0.9,0.9,2.4,0,3.4c-0.9,0.9-2.4,0.9-3.4,0l-5.6-5.6c-0.2-0.2-0.4-0.5-0.5-0.8c-1.8,0.9-3.7,1.7-5.6,2.5l4.3,4.3
			c0.9,0.9,0.9,2.4,0,3.4c-0.9,0.9-2.4,0.9-3.4,0l-5.2-5.5c0,0,0-0.1-0.1-0.1c-1.9,0.7-3.7,1.4-5.5,1.9l3.5,3.5
			c0.9,0.9,0.9,2.4,0,3.4c-0.9,0.9-2.4,0.9-3.4,0l-4.9-4.9c-0.2-0.2-0.3-0.4-0.4-0.6C42.2,59.9,28.8,61,28.8,69.1z M126.9,52.5
			c2.1-1,7.6-6,8.2-6.6c1.5-1.3,2.6-0.5,2.6,0.7s0,11,0,11s-7.6,0-10.2,0C125,57.6,124.8,53.5,126.9,52.5z M104.4,78.3l12.4-16.7
			h6.9l-12.3,16.8h-7V78.3z M90.4,78.3l12.3-16.7h6.9L97.3,78.3H90.4z M75.6,78.3l12.3-16.7h6.9L82.5,78.3H75.6z"/>
	</g>
	<g>
		<path class="st0" d="M52.2,140.9v2h-8.7v2.2H41v-2.2h-8.6v-2H52.2z M43.5,146.4c0,2,2.8,3.7,7.1,4.1l-0.8,1.8
			c-3.5-0.4-6.3-1.6-7.6-3.4c-1.3,1.8-4.1,3-7.6,3.4l-0.8-1.8c4.2-0.4,7.1-2.1,7.1-4.1v-0.5h2.6V146.4z M37.3,133.3h-3.1v-2h16.1v2
			h-3v3.9h2.9v2H34.4v-2h3v-3.9H37.3z M44.8,133.3h-5v3.9h5V133.3z"/>
		<path class="st0" d="M65.8,141.2c-2.4-0.8-4.1-2.4-5-4.4c-1,2.3-2.8,4.1-5.4,5l-1.2-2c3.4-1.1,5.3-3.8,5.3-6.8v-1.6H62v1.5
			c0,2.8,1.8,5.3,5.1,6.3L65.8,141.2z M59.8,150.3H72v1.9H57.3v-5.6h11.5v-1.7H57.3V143h14v5.5H59.8V150.3z M74.3,135.2v2h-3v4.7
			h-2.5v-11.2h2.5v4.5C71.3,135.2,74.3,135.2,74.3,135.2z"/>
		<path class="st0" d="M84,146.3c1.8-0.1,3.7-0.2,5.4-0.5l0.2,1.8c-4.6,0.8-9.6,0.9-13.4,0.9l-0.3-2c1.7,0,3.6,0,5.6-0.1v-2.1
			c-2.4-0.4-4-1.9-4-3.9c0-2.4,2.1-4.1,5.2-4.1s5.2,1.6,5.2,4.1c0,2.1-1.6,3.6-4,3.9v2H84z M89.2,135.2H76.3v-2h5.2v-2.4H84v2.4h5.2
			V135.2z M82.8,142.5c1.7,0,2.9-0.8,2.9-2.1s-1.2-2.2-2.9-2.2s-2.9,0.8-2.9,2.2C79.9,141.7,81.1,142.5,82.8,142.5z M96.2,141.8
			h-3.1v10.6h-2.5v-21.7h2.5v9.1h3.1V141.8z"/>
		<path class="st0" d="M101.2,145.2c2.5,0,4.5-0.1,6.7-0.6l0.2,2c-2.6,0.5-4.8,0.6-7.9,0.6h-1.4v-13.9h8v2h-5.6
			C101.2,135.3,101.2,145.2,101.2,145.2z M116.5,130.7v21.7h-2.4v-11.1h-2.6v10h-2.3v-20.2h2.3v8.1h2.6v-8.6L116.5,130.7
			L116.5,130.7z"/>
		<path class="st0" d="M137.9,130.7v21.7h-2.5v-8.2h-5c-0.9,2.1-2.6,3.4-4.7,3.4c-3.2,0-5.5-3-5.5-7.7s2.3-7.6,5.5-7.6
			c2,0,3.6,1.1,4.6,3.1h5.1v-4.7C135.4,130.7,137.9,130.7,137.9,130.7z M128.9,140c0-3.4-1.3-5.4-3.1-5.4c-1.8,0-3.1,2-3.1,5.4
			c0,3.4,1.3,5.4,3.1,5.4C127.6,145.4,128.9,143.4,128.9,140z M135.4,142.2v-4.8H131c0.2,0.8,0.3,1.6,0.3,2.5c0,0.8-0.1,1.5-0.2,2.2
			h4.3V142.2z"/>
	</g>
</g>
</svg>
